<svg width="21" height="31" viewBox="0 0 21 31" fill="none" xmlns="http://www.w3.org/2000/svg">
<path d="M10.5 1C15.7467 1 20 5.25329 20 10.5C20 11.7137 19.4304 13.4906 18.4531 15.583C17.4935 17.6375 16.2049 19.8648 14.9033 21.9326C13.604 23.9968 12.3033 25.8844 11.3262 27.2568C11.0142 27.6951 10.7346 28.0801 10.5 28.4014C10.2654 28.0801 9.98584 27.6951 9.67383 27.2568C8.69674 25.8844 7.39599 23.9968 6.09668 21.9326C4.79514 19.8648 3.5065 17.6375 2.54688 15.583C1.56955 13.4906 1 11.7137 1 10.5C1 5.25329 5.2533 1 10.5 1Z" stroke="white" stroke-width="2"/>
<circle cx="10.5004" cy="9.55412" r="3.25676" stroke="white" stroke-width="2"/>
</svg>
