<svg width="94" height="135" viewBox="0 0 94 135" fill="none" xmlns="http://www.w3.org/2000/svg">
<path d="M47 4C70.7482 4 90 23.2518 90 47C90 52.5451 87.4102 60.5797 83.0322 69.9531C78.7249 79.1751 72.9466 89.1633 67.1152 98.4277C61.2925 107.678 55.4623 116.136 51.085 122.284C49.5113 124.495 48.1268 126.404 47 127.942C45.8732 126.404 44.4887 124.495 42.915 122.284C38.5377 116.136 32.7075 107.678 26.8848 98.4277C21.0534 89.1633 15.2751 79.1751 10.9678 69.9531C6.58975 60.5797 4 52.5451 4 47C4 23.2518 23.2518 4 47 4Z" stroke="white" stroke-width="8"/>
<circle cx="47.0003" cy="42.766" r="15.0541" stroke="white" stroke-width="8"/>
</svg>
