<svg width="750" height="399" viewBox="0 0 750 399" fill="none" xmlns="http://www.w3.org/2000/svg">
<path d="M101.224 291.305C96.4699 291.305 92.5276 289.51 89.397 285.921C86.2664 282.447 84.7011 277.353 84.7011 270.638C84.7011 263.807 85.8606 256.744 88.1795 249.45C90.4985 242.155 93.3393 234.745 96.7018 227.22C100.064 219.694 103.427 212.168 106.789 204.642C110.152 197.117 112.993 189.707 115.312 182.412C117.631 175.118 118.79 168.056 118.79 161.224C118.79 157.172 118.268 153.699 117.225 150.804C116.181 147.794 114.5 145.594 112.181 144.205C109.63 142.584 106.789 141.426 103.659 140.731C100.528 140.036 97.2816 139.689 93.919 139.689C86.3823 139.689 78.5557 141.136 70.4393 144.031C62.3228 146.925 54.4962 150.978 46.9595 156.188C39.5388 161.282 32.8137 167.245 26.7843 174.076C20.8709 180.791 16.117 188.144 12.5225 196.132C9.04406 204.006 7.30481 212.168 7.30481 220.62C7.30481 227.104 8.46431 232.951 10.7833 238.161C13.1023 243.371 16.4068 247.481 20.697 250.492C24.9871 253.502 30.0309 255.007 35.8284 255.007C41.7418 255.007 47.1914 253.618 52.1772 250.839C57.1631 248.06 61.4532 244.529 65.0476 240.245C68.758 235.845 71.5988 231.156 73.5699 226.178C75.657 221.199 76.7005 216.568 76.7005 212.284C76.7005 208.695 75.773 205.684 73.9178 203.253C72.1785 200.706 69.3378 199.432 65.3955 199.432C62.8446 199.432 60.8155 199.664 59.3081 200.127C57.8008 200.474 56.2934 200.879 54.7861 201.343C54.2064 201.343 53.9165 201.169 53.9165 200.822C53.9165 199.201 55.3659 197.869 58.2646 196.827C61.2793 195.785 64.6998 195.264 68.5261 195.264C73.0481 195.264 76.3527 196.769 78.4398 199.78C80.6428 202.79 81.7443 206.611 81.7443 211.242C81.7443 217.494 80.295 223.515 77.3962 229.304C74.6135 235.093 70.8451 240.303 66.0912 244.934C61.3372 249.45 56.0615 253.039 50.2641 255.702C44.4666 258.365 38.6691 259.696 32.8717 259.696C26.3785 259.696 20.639 258.017 15.6532 254.66C10.6673 251.186 6.78304 246.497 4.00026 240.592C1.33342 234.688 0 228.088 0 220.794C0 211.763 1.97114 203.079 5.91342 194.743C9.8557 186.291 15.1314 178.476 21.7405 171.297C28.3496 164.003 35.7124 157.635 43.8289 152.194C52.0613 146.752 60.4097 142.526 68.874 139.515C77.3383 136.505 85.3388 135 92.8755 135C95.8902 135 99.0208 135.289 102.267 135.868C105.514 136.447 108.529 137.374 111.311 138.647C117.457 141.194 121.747 145.073 124.182 150.283C126.733 155.377 128.008 160.935 128.008 166.956C128.008 173.787 126.849 180.849 124.53 188.144C122.327 195.322 119.544 202.616 116.181 210.026C112.935 217.32 109.63 224.615 106.268 231.909C103.021 239.087 100.238 246.092 97.9193 252.923C95.7163 259.638 94.6147 266.064 94.6147 272.201C94.6147 276.948 95.4844 280.595 97.2236 283.142C99.0788 285.573 101.456 286.789 104.354 286.789C108.065 286.789 112.471 284.821 117.573 280.884C122.79 276.948 128.24 270.927 133.922 262.822C138.212 256.57 142.386 249.971 146.444 243.024C147.256 241.403 148.009 239.898 148.705 238.508C149.401 237.003 150.097 235.614 150.792 234.34C152.3 231.33 153.865 228.204 155.488 224.962C157.111 221.604 158.619 218.478 160.01 215.584C161.518 212.689 162.735 210.431 163.663 208.81C164.59 207.305 165.692 205.626 166.967 203.774C168.243 201.921 170.098 200.995 172.533 200.995C173.924 200.995 174.968 201.4 175.663 202.211C176.475 203.021 176.881 204.063 176.881 205.337C176.881 208.116 175.779 211.473 173.576 215.41C171.489 219.347 169.344 223.052 167.141 226.525C165.17 229.767 163.141 233.24 161.054 236.945C158.967 240.65 157.285 243.834 156.01 246.497C154.155 250.202 152.184 254.718 150.097 260.044C148.125 265.254 147.14 270.232 147.14 274.979C147.14 277.179 147.488 279.147 148.183 280.884C148.995 282.621 150.444 283.489 152.531 283.489C154.503 283.489 156.88 282.389 159.662 280.19C162.445 277.874 165.286 274.864 168.185 271.159C171.199 267.338 173.982 263.112 176.533 258.481C176.765 257.902 176.997 257.496 177.229 257.265C177.808 256.223 178.678 255.528 179.838 255.181C180.997 254.833 182.041 254.833 182.968 255.181C183.896 255.412 184.302 256.107 184.186 257.265C184.07 258.075 183.548 260.102 182.62 263.343C181.693 266.469 180.417 270.406 178.794 275.153C177.171 279.784 175.142 284.821 172.707 290.262C170.388 295.82 167.663 301.377 164.532 306.935C167.547 306.935 171.141 306.935 175.316 306.935C179.49 306.935 183.838 306.703 188.36 306.24C192.882 305.893 197.056 305.198 200.882 304.156C204.825 303.114 208.013 301.551 210.448 299.467C212.883 297.383 214.101 294.662 214.101 291.305V290.61C214.101 289.568 214.217 289.047 214.448 289.047C214.68 289.047 214.912 289.22 215.144 289.568C215.376 289.915 215.55 290.262 215.666 290.61C216.246 291.883 216.536 293.215 216.536 294.604C216.536 296.804 215.782 299.236 214.275 301.898C212.883 304.677 210.158 306.877 206.1 308.498C202.39 310.003 198.1 310.929 193.23 311.277C188.476 311.624 183.432 311.682 178.098 311.45C172.765 311.335 167.315 311.335 161.749 311.45C155.952 320.25 148.647 327.833 139.835 334.201C131.139 340.569 122.327 345.432 113.399 348.79C108.529 350.642 103.833 351.974 99.3107 352.784C94.9046 353.595 90.7304 354 86.7881 354C78.6717 354 72.6423 352.495 68.7 349.485C64.8737 346.474 62.9605 342.827 62.9605 338.543C62.9605 335.417 64.5838 332.002 67.8304 328.297C71.1929 324.592 76.5846 321.234 84.0054 318.224C95.3684 313.477 106.847 310.408 118.442 309.019C130.037 307.745 142.618 307.109 156.184 307.109C159.43 301.898 162.329 296.052 164.88 289.568C167.431 283.084 169.634 277.237 171.489 272.027C168.243 276.774 164.88 280.653 161.402 283.663C157.923 286.673 154.039 288.178 149.749 288.178C145.922 288.178 142.908 287.079 140.705 284.879C138.502 282.795 137.052 280.19 136.357 277.063C135.777 273.822 135.835 270.695 136.53 267.685C130.269 275.674 124.066 281.579 117.921 285.4C111.891 289.336 106.326 291.305 101.224 291.305ZM88.0056 349.137C91.3682 349.137 95.0206 348.79 98.9628 348.095C102.905 347.4 106.789 346.358 110.616 344.969C118.5 342.075 126.327 337.849 134.096 332.291C141.98 326.849 148.589 319.902 153.923 311.45C142.096 311.45 130.675 312.319 119.66 314.056C108.645 315.908 97.9193 319.845 87.4838 325.865C82.2661 328.76 78.4978 331.481 76.1788 334.028C73.9757 336.575 72.8742 338.833 72.8742 340.801C72.8742 343.348 74.0337 345.374 76.3527 346.879C78.7876 348.385 82.6719 349.137 88.0056 349.137Z" fill="white"/>
<path d="M243.225 241.634C243.225 245.108 242.297 249.276 240.442 254.139C238.587 259.002 235.978 263.749 232.615 268.38C229.253 273.011 225.253 276.89 220.615 280.016C216.093 283.026 211.165 284.531 205.831 284.531C201.193 284.531 197.773 283.142 195.57 280.363C193.366 277.584 192.265 274.053 192.265 269.769C192.265 266.412 192.903 262.591 194.178 258.307C195.57 254.023 197.367 249.044 199.57 243.371C200.15 241.982 201.309 239.492 203.048 235.903C204.903 232.198 207.164 227.914 209.831 223.052C212.498 218.073 215.339 212.921 218.354 207.595C221.484 202.269 224.615 197.232 227.746 192.485C230.992 187.623 234.065 183.57 236.963 180.328C244.5 171.413 251.863 164.466 259.052 159.488C266.241 154.393 273.14 151.846 279.749 151.846C283.691 151.846 286.706 152.83 288.793 154.799C290.996 156.651 292.097 159.14 292.097 162.266C292.097 166.55 290.126 171.761 286.184 177.897C282.242 183.918 276.328 190.17 268.444 196.653C263.342 201.169 257.139 205.453 249.834 209.505C242.529 213.557 232.963 217.378 221.136 220.967C217.194 228.146 213.716 235.093 210.701 241.808C207.686 248.408 205.309 254.428 203.57 259.87C201.831 265.196 200.961 269.48 200.961 272.722C200.961 274.458 201.135 276.021 201.483 277.411C201.715 278.337 202.237 279.205 203.048 280.016C203.976 280.711 205.077 281.058 206.353 281.058C207.976 281.058 209.831 280.421 211.918 279.147C214.121 277.874 216.556 275.616 219.223 272.374C220.847 270.406 222.528 268.033 224.267 265.254C226.006 262.475 227.63 259.638 229.137 256.744C230.644 253.734 231.862 251.071 232.789 248.755C234.76 244.124 235.746 239.898 235.746 236.077C235.746 232.372 234.876 229.941 233.137 228.783C231.514 227.625 229.021 227.046 225.658 227.046C223.571 227.046 222.528 226.467 222.528 225.309C222.528 224.846 222.818 224.383 223.397 223.92C224.093 223.457 225.021 223.225 226.18 223.225C230.586 223.225 234.529 224.846 238.007 228.088C241.486 231.33 243.225 235.845 243.225 241.634ZM279.749 157.577C275.807 157.577 271.458 159.256 266.705 162.614C261.951 165.856 257.081 170.313 252.095 175.987C247.109 181.66 242.181 188.028 237.311 195.09C232.441 202.037 227.861 209.216 223.571 216.626C233.427 213.384 241.717 209.795 248.442 205.858C255.283 201.921 261.139 197.811 266.009 193.527C272.85 187.854 277.952 182.412 281.314 177.202C284.677 171.876 286.358 167.534 286.358 164.177C286.358 162.209 285.778 160.646 284.619 159.488C283.575 158.214 281.952 157.577 279.749 157.577Z" fill="white"/>
<path d="M263.135 285.226C258.845 285.226 254.961 283.837 251.482 281.058C248.12 278.279 246.438 274.053 246.438 268.38C246.438 263.633 247.482 258.596 249.569 253.27C251.772 247.944 254.613 242.966 258.091 238.335C261.686 233.588 265.628 229.767 269.918 226.872C274.324 223.862 278.73 222.357 283.136 222.357C285.339 222.357 287.484 222.994 289.571 224.267C291.659 225.541 292.702 227.741 292.702 230.867C292.702 233.761 291.601 236.945 289.398 240.419C287.194 243.892 284.064 247.134 280.006 250.144C278.266 251.418 276.063 252.634 273.397 253.791C270.73 254.949 268.063 255.933 265.396 256.744C262.729 257.439 260.526 257.786 258.787 257.786C258.207 259.175 257.627 261.028 257.048 263.343C256.584 265.659 256.352 268.033 256.352 270.464C256.352 273.358 256.932 275.964 258.091 278.279C259.251 280.595 261.396 281.753 264.526 281.753C268.353 281.753 271.889 280.653 275.136 278.453C278.498 276.253 281.455 273.474 284.006 270.117C286.673 266.759 288.934 263.343 290.789 259.87C292.644 256.397 294.093 253.444 295.137 251.013C296.528 251.013 297.224 251.534 297.224 252.576C295.717 255.818 293.978 259.349 292.006 263.17C290.151 266.99 287.89 270.58 285.223 273.937C282.672 277.179 279.542 279.9 275.831 282.1C272.237 284.184 268.005 285.226 263.135 285.226ZM260.004 254.66C261.628 254.66 264.352 254.081 268.179 252.923C272.005 251.649 275.484 249.681 278.614 247.018C281.629 244.355 283.948 241.461 285.571 238.335C287.194 235.093 288.006 232.372 288.006 230.172C288.006 227.625 287.079 226.351 285.223 226.351C283.832 226.351 281.919 227.278 279.484 229.13C277.049 230.983 274.034 234.109 270.44 238.508C268.237 241.287 266.15 244.297 264.179 247.539C262.207 250.781 260.816 253.155 260.004 254.66Z" fill="white"/>
<path d="M284.155 284.531C282.88 284.531 281.836 284.531 281.025 284.531C280.097 284.647 279.17 284.937 278.242 285.4C282.532 277.179 286.59 268.959 290.417 260.738C294.243 252.402 298.127 244.529 302.07 237.119C304.389 232.951 306.302 230.056 307.809 228.435C309.432 226.699 311.577 225.83 314.244 225.83C315.172 225.83 316.157 226.004 317.201 226.351C318.244 226.583 319.288 226.699 320.332 226.699C321.027 226.699 321.549 226.641 321.897 226.525C320.274 227.451 318.187 229.767 315.636 233.472C313.085 237.061 310.476 241.229 307.809 245.976C305.142 250.723 302.765 255.181 300.678 259.349C302.881 256.686 305.142 254.023 307.461 251.36C309.896 248.697 312.563 246.15 315.462 243.718C318.013 241.519 320.679 239.145 323.462 236.598C326.361 233.935 329.202 231.677 331.984 229.825C334.767 227.972 337.202 227.046 339.289 227.046C340.101 227.046 340.623 227.104 340.855 227.22C343.058 228.146 344.159 229.651 344.159 231.735C344.159 232.43 343.869 233.472 343.29 234.861C341.782 238.798 339.811 242.85 337.376 247.018C335.057 251.071 332.854 255.181 330.767 259.349C332.506 257.265 334.651 254.718 337.202 251.707C339.869 248.697 342.536 246.034 345.203 243.718C347.754 241.403 351 238.971 354.942 236.424C358.885 233.877 362.769 231.677 366.595 229.825C370.422 227.972 373.494 227.046 375.813 227.046C376.625 227.046 377.205 227.104 377.553 227.22C377.553 227.22 376.915 228.377 375.639 230.693C374.364 232.893 372.741 235.845 370.77 239.55C368.914 243.14 367.001 247.018 365.03 251.186C363.059 255.239 361.262 259.175 359.638 262.996C358.131 266.701 357.146 269.827 356.682 272.374C356.334 273.879 356.16 275.269 356.16 276.542C356.16 278.395 356.508 279.611 357.203 280.19C357.899 280.768 358.653 281.058 359.465 281.058C361.784 281.058 364.045 280.074 366.248 278.105C368.567 276.137 370.828 273.648 373.031 270.638C375.234 267.512 377.205 264.212 378.944 260.738C380.799 257.265 382.365 254.023 383.64 251.013C385.031 251.013 385.727 251.534 385.727 252.576C384.452 255.702 382.828 259.175 380.857 262.996C379.002 266.701 376.857 270.232 374.422 273.59C371.987 276.948 369.32 279.726 366.421 281.926C363.523 284.126 360.392 285.226 357.03 285.226C354.595 285.226 352.276 284.416 350.073 282.795C347.985 281.174 346.942 278.163 346.942 273.764C346.942 269.017 348.043 264.27 350.247 259.523C352.566 254.776 354.942 250.434 357.377 246.497C358.537 244.529 359.117 242.966 359.117 241.808C359.117 240.419 358.421 239.724 357.03 239.724C355.87 239.724 354.247 240.303 352.16 241.461C350.189 242.619 347.696 244.645 344.681 247.539C342.826 249.276 340.623 251.707 338.072 254.833C335.637 257.844 333.144 261.144 330.593 264.733C328.042 268.322 325.839 271.853 323.984 275.327C322.129 278.8 320.911 281.868 320.332 284.531C318.592 284.531 317.201 283.837 316.157 282.447C315.114 280.942 314.592 279.205 314.592 277.237C314.592 276.89 314.592 276.542 314.592 276.195C314.592 275.848 314.65 275.443 314.766 274.979C315.346 271.39 316.273 268.38 317.549 265.948C318.824 263.401 320.274 260.449 321.897 257.091C322.709 255.586 323.636 253.849 324.68 251.881C325.723 249.797 326.651 247.829 327.462 245.976C328.274 244.008 328.68 242.387 328.68 241.113C328.68 239.956 328.216 239.377 327.289 239.377C326.245 239.377 324.854 239.898 323.114 240.94C321.491 241.982 319.926 243.197 318.418 244.587C316.911 245.86 315.752 246.845 314.94 247.539C312.041 250.318 308.505 254.312 304.331 259.523C300.272 264.733 295.808 272.143 290.938 281.753C290.243 283.026 289.431 283.837 288.503 284.184C287.576 284.416 286.126 284.531 284.155 284.531Z" fill="white"/>
<path d="M420.301 262.822C419.142 265.254 417.808 267.569 416.301 269.769C416.765 269.885 417.287 269.943 417.866 269.943C420.649 269.943 423.606 268.554 426.736 265.775C429.983 262.88 433.172 258.017 436.302 251.186C438.157 247.134 440.013 243.14 441.868 239.203C443.839 235.151 445.578 231.561 447.086 228.435C447.781 227.046 448.709 226.12 449.868 225.657C451.028 225.078 452.419 224.788 454.043 224.788H463.434C461.463 226.293 459.782 227.799 458.391 229.304C457.115 230.693 455.666 232.661 454.043 235.209C452.535 237.64 450.448 241.287 447.781 246.15C446.738 248.118 445.462 250.897 443.955 254.486C442.564 257.96 441.288 261.607 440.129 265.427C438.969 269.248 438.389 272.606 438.389 275.5C438.389 277.237 438.621 278.684 439.085 279.842C439.665 281 440.708 281.579 442.216 281.579C444.419 281.579 446.68 280.653 448.999 278.8C451.318 276.832 453.579 274.343 455.782 271.332C457.985 268.206 460.014 264.849 461.869 261.259C463.84 257.67 465.522 254.255 466.913 251.013C468.304 251.013 469 251.534 469 252.576C467.609 256.049 465.869 259.754 463.782 263.691C461.811 267.511 459.492 271.101 456.825 274.458C454.274 277.816 451.434 280.595 448.303 282.795C445.288 284.879 442.042 285.921 438.563 285.921C436.244 285.921 434.041 285.052 431.954 283.316C429.867 281.463 428.824 278.626 428.824 274.806C428.824 272.49 429.403 269.422 430.563 265.601C428.476 268.38 426.331 270.29 424.128 271.332C421.925 272.374 419.548 272.895 416.997 272.895C415.953 272.895 415.026 272.837 414.214 272.722C411.083 276.427 407.489 279.553 403.431 282.1C399.372 284.531 394.908 285.747 390.038 285.747C385.285 285.747 381.864 284.416 379.777 281.753C377.806 279.09 376.82 275.79 376.82 271.853C376.82 269.538 377.11 267.28 377.69 265.08C378.27 262.88 378.965 260.68 379.777 258.481C380.936 255.702 382.56 252.344 384.647 248.408C386.734 244.471 389.053 240.592 391.604 236.772C394.155 232.951 396.706 229.767 399.256 227.22C401.807 224.672 404.068 223.399 406.039 223.399C406.967 223.399 407.953 223.573 408.996 223.92C410.04 224.151 411.141 224.267 412.301 224.267C412.765 224.267 413.17 224.209 413.518 224.094C412.823 224.441 411.721 225.541 410.214 227.393C408.706 229.13 406.967 231.272 404.996 233.819C403.141 236.366 401.228 238.971 399.256 241.634C397.285 244.297 395.546 246.671 394.039 248.755C396.01 246.671 398.619 244.587 401.865 242.503C405.112 240.303 408.532 239.203 412.127 239.203C416.069 239.203 418.968 240.303 420.823 242.503C422.678 244.703 423.606 247.308 423.606 250.318C423.606 252.402 423.258 254.602 422.562 256.918C421.983 259.117 421.229 261.086 420.301 262.822ZM403.778 262.475C403.778 260.854 404.3 259.58 405.344 258.654C406.387 257.728 407.547 257.265 408.822 257.265C410.098 257.265 411.025 257.612 411.605 258.307C412.301 259.002 412.649 259.812 412.649 260.738C412.649 261.086 412.649 261.375 412.649 261.607C413.344 259.638 413.808 257.844 414.04 256.223C414.272 254.602 414.388 253.27 414.388 252.228C414.388 249.913 413.924 248.002 412.996 246.497C412.069 244.876 410.446 244.066 408.127 244.066C405.228 244.066 402.039 245.687 398.561 248.929C395.082 252.17 391.952 256.339 389.169 261.433C387.43 264.675 386.154 267.512 385.342 269.943C384.647 272.374 384.299 274.69 384.299 276.89C384.299 278.742 384.763 280.247 385.69 281.405C386.618 282.563 388.299 283.142 390.734 283.142C392.937 283.142 395.662 281.984 398.909 279.669C402.271 277.353 405.344 274.169 408.127 270.117C405.228 268.033 403.778 265.485 403.778 262.475Z" fill="white"/>
<g clip-path="url(#clip0_19_152)">
<path d="M534.52 252.99L547.27 255.14L522 349.18H507.75L534.52 252.99Z" fill="white" stroke="white" stroke-miterlimit="10"/>
<path d="M520.32 336.62L508 349.5C536.2 349.56 589.71 347.47 619.78 304.55L610.5 297.5C583 329 559 334.5 520.33 336.62H520.32Z" fill="white" stroke="white" stroke-miterlimit="10"/>
<path d="M556.38 173.65L567.3 185.62L473.68 188.74L469.68 176.23L556.38 173.65Z" fill="white" stroke="white" stroke-miterlimit="10"/>
<path d="M488.5 182.33L471 180C478.36 207.23 491.89 252.14 541.2 269.86L547.27 255.13C506.5 245 491.5 204 487.717 182.226L488.5 182.33Z" fill="white" stroke="white" stroke-miterlimit="10"/>
<path d="M608.75 311.52L615.57 301.36L686.08 348.97L682.11 361.47L608.75 311.52Z" fill="white" stroke="white" stroke-miterlimit="10"/>
<path d="M670.5 347.18L684.5 354C693.98 327.66 707.36 286.32 677.4 242.42L664.11 250.63C695.906 293 679.1 327.06 670.5 348.5V347.18Z" fill="white" stroke="white" stroke-miterlimit="10"/>
<path d="M651 170.5L638.5 175L604.42 93.03L614.65 84.81L651 170.5Z" fill="white" stroke="white" stroke-miterlimit="10"/>
<path d="M614.13 100.47L610.72 87.97C590.5 100.47 551.32 133.19 552.5 185.58H568.9C564.5 150 600.5 107.5 616 105L614.13 100.47Z" fill="white" stroke="white" stroke-miterlimit="10"/>
<path d="M680.25 255.65L673.58 244.85L738.42 194.96L748.99 202.76L680.25 255.65Z" fill="white" stroke="white" stroke-miterlimit="10"/>
<path d="M733.72 206.26L748 202C732.5 184.28 686.52 154.25 636.17 168.79L641.5 183.5C677.12 169.72 706 182 733.72 206.25V206.26Z" fill="white" stroke="white" stroke-miterlimit="10"/>
<path d="M559.482 281C559.482 278.163 559.482 275.325 559.482 272.488C559.482 269.651 559.482 266.763 559.482 263.824C559.482 258.757 560.191 254.755 561.61 251.816C563.13 248.776 565.308 246.293 568.146 244.368C570.983 242.443 574.428 240.467 578.482 238.44C582.028 236.819 584.967 234.944 587.298 232.816C589.73 230.688 591.604 228.104 592.922 225.064C594.34 221.923 595.05 218.173 595.05 213.816C595.151 208.648 594.138 204.696 592.01 201.96C589.983 199.224 586.639 197.856 581.978 197.856C577.823 197.856 574.58 199.173 572.25 201.808C570.02 204.443 568.906 208.496 568.906 213.968V221.416H559.33V211.992C559.33 204.797 561.306 199.477 565.258 196.032C569.21 192.485 574.834 190.712 582.13 190.712C587.804 190.712 592.314 191.573 595.658 193.296C599.002 195.019 601.383 197.653 602.802 201.2C604.322 204.645 605.082 209.053 605.082 214.424C605.082 221.112 603.663 226.837 600.826 231.6C598.09 236.261 593.935 240.061 588.362 243C585.322 244.419 582.484 245.888 579.85 247.408C577.316 248.928 575.138 250.803 573.314 253.032C571.591 255.16 570.578 257.947 570.274 261.392C569.97 263.115 569.716 264.939 569.514 266.864C569.412 268.789 569.362 270.816 569.362 272.944H605.842V281H559.482ZM640.724 281V262.912H609.26V255.312L641.788 191.168H650.3V256.224H659.268V262.912H650.3V281H640.724ZM617.468 256.224H640.724V210.016L617.468 256.224Z" fill="white"/>
</g>
<path d="M389.855 78.0313C390.256 78.433 390.465 79.1976 390.465 79.998C391.726 93.9173 382.654 113.59 365.936 130.307C349.064 147.179 329.183 156.261 315.243 154.796L315.233 154.786C314.687 154.748 314.156 154.525 313.744 154.113C312.818 153.186 312.843 151.658 313.8 150.7C314.545 149.955 315.635 149.775 316.519 150.167C329.186 152.307 347.978 144.056 363.831 128.203C379.733 112.301 387.988 93.4413 385.778 80.7727C385.496 79.9318 385.567 78.802 386.372 77.9968C387.386 76.9822 389.012 77.1884 389.855 78.0313Z" fill="white"/>
<path d="M368.662 99.0964C370.767 94.5846 369.284 93.043 369.507 93.0318C371.7 92.9316 380.147 99.7162 377 106.818C375.229 110.816 370.633 112.53 368.216 111.267C364.975 109.569 365.054 107.055 365.355 105.381C365.709 103.427 366.718 103.262 368.662 99.0964Z" fill="white" stroke="white" stroke-width="0.75" stroke-miterlimit="10"/>
<path d="M385.167 139.93C392.316 138.459 394.011 141.098 394.102 140.785C394.99 137.69 388.183 123.34 376.988 125.417C370.685 126.585 366.68 132.557 367.66 136.433C368.98 141.631 372.593 142.373 375.082 142.511C377.988 142.67 378.566 141.288 385.167 139.93Z" fill="white" stroke="white" stroke-width="0.75" stroke-miterlimit="10"/>
<path d="M472.141 133.369C479.265 135.278 486.587 131.051 488.496 123.927C490.404 116.804 486.177 109.481 479.053 107.573C471.93 105.664 464.608 109.891 462.699 117.015C460.79 124.138 465.018 131.461 472.141 133.369Z" stroke="white" stroke-width="4" stroke-miterlimit="10"/>
<path d="M474.733 123.696C476.514 124.173 478.345 123.116 478.822 121.335C479.299 119.554 478.242 117.724 476.461 117.246C474.681 116.769 472.85 117.826 472.373 119.607C471.896 121.388 472.952 123.218 474.733 123.696Z" fill="white" stroke="white" stroke-miterlimit="10"/>
<path d="M490.524 91.9976C490.524 91.9976 490.522 91.9775 490.525 91.9666C490.542 90.655 490.398 89.3625 490.106 88.1158L490.102 88.1149C490.085 88.0245 490.059 87.9359 490.038 87.8445C489.783 86.8533 489.435 85.8994 488.994 84.9908C488.896 84.7775 488.787 84.5732 488.679 84.3652C488.485 84.0133 488.279 83.6621 488.061 83.3272C487.513 82.4795 486.885 81.6919 486.182 80.97C485.208 81.2427 484.27 81.6105 483.375 82.0717C483.018 82.2564 482.669 82.4548 482.321 82.6614C482.124 82.7877 481.924 82.9094 481.735 83.0458C480.899 83.6161 480.12 84.2681 479.405 84.9954C479.337 85.063 479.274 85.1279 479.214 85.1974L479.21 85.1964C478.334 86.1261 477.559 87.1762 476.922 88.3216C476.919 88.3325 476.912 88.3425 476.907 88.3488C476.299 89.4554 475.812 90.6489 475.47 91.9242C475.128 93.1995 474.953 94.4766 474.927 95.739C474.928 95.7472 474.929 95.7591 474.926 95.77C474.909 97.0816 475.053 98.374 475.345 99.6207L475.349 99.6217C475.366 99.7121 475.392 99.8007 475.413 99.892C475.668 100.883 476.016 101.837 476.457 102.746C476.555 102.959 476.664 103.163 476.772 103.371C476.966 103.723 477.172 104.074 477.39 104.409C477.938 105.257 478.566 106.045 479.269 106.767C480.243 106.494 481.181 106.126 482.076 105.665C482.433 105.48 482.782 105.282 483.13 105.075C483.327 104.949 483.527 104.827 483.716 104.691C484.552 104.12 485.331 103.469 486.046 102.741C486.114 102.674 486.177 102.609 486.237 102.539L486.241 102.54C487.117 101.61 487.892 100.56 488.529 99.4149C488.532 99.404 488.539 99.3941 488.544 99.3878C489.152 98.2812 489.639 97.0876 489.981 95.8123C490.322 94.537 490.498 93.2599 490.524 91.9976ZM481.227 103.245C481.046 103.668 480.856 104.065 480.656 104.44C480.382 104.954 480.096 105.426 479.802 105.842C479.655 106.052 479.509 106.243 479.358 106.42C479.317 106.191 479.287 105.95 479.263 105.698C479.218 105.187 479.202 104.638 479.225 104.056C479.239 103.632 479.273 103.193 479.327 102.736C479.433 101.834 479.616 100.878 479.878 99.9007C480.14 98.9234 480.459 98.004 480.819 97.1698C481.001 96.7473 481.19 96.3504 481.39 95.9754C481.664 95.4609 481.95 94.9885 482.244 94.5727C482.392 94.3629 482.538 94.1723 482.688 93.9945C482.729 94.2236 482.759 94.4654 482.783 94.717C482.828 95.2277 482.845 95.7772 482.822 96.3591C482.807 96.7834 482.773 97.2222 482.719 97.6789C482.614 98.5814 482.43 99.5369 482.168 100.514C481.906 101.492 481.588 102.411 481.227 103.245Z" fill="white" stroke="white" stroke-width="0.75" stroke-miterlimit="10"/>
<path d="M460.886 148.138C460.886 148.138 460.889 148.158 460.886 148.169C460.869 149.481 461.012 150.773 461.305 152.02L461.309 152.021C461.326 152.111 461.352 152.2 461.373 152.291C461.628 153.283 461.976 154.237 462.416 155.145C462.515 155.358 462.624 155.563 462.731 155.771C462.926 156.123 463.132 156.474 463.35 156.809C463.898 157.656 464.526 158.444 465.229 159.166C466.202 158.893 467.141 158.525 468.035 158.064C468.393 157.879 468.742 157.681 469.09 157.474C469.287 157.348 469.487 157.226 469.675 157.09C470.512 156.52 471.291 155.868 472.006 155.14C472.073 155.073 472.136 155.008 472.197 154.938L472.2 154.939C473.076 154.01 473.852 152.96 474.489 151.814C474.492 151.803 474.498 151.793 474.504 151.787C475.112 150.68 475.599 149.487 475.94 148.212C476.282 146.936 476.457 145.659 476.484 144.397C476.482 144.389 476.482 144.377 476.485 144.366C476.502 143.054 476.358 141.762 476.065 140.515L476.062 140.514C476.044 140.424 476.019 140.335 475.997 140.244C475.743 139.253 475.394 138.299 474.954 137.39C474.855 137.177 474.747 136.972 474.639 136.764C474.445 136.413 474.239 136.061 474.021 135.727C473.473 134.879 472.844 134.091 472.141 133.369C471.168 133.642 470.23 134.01 469.335 134.471C468.978 134.656 468.628 134.854 468.281 135.061C468.083 135.187 467.884 135.309 467.695 135.445C466.858 136.015 466.08 136.667 465.364 137.395C465.297 137.462 465.234 137.527 465.174 137.597L465.17 137.596C464.294 138.525 463.519 139.575 462.881 140.721C462.879 140.732 462.872 140.742 462.867 140.748C462.259 141.855 461.772 143.048 461.43 144.324C461.088 145.599 460.913 146.876 460.886 148.138ZM470.187 136.892C470.369 136.469 470.558 136.072 470.758 135.697C471.032 135.183 471.318 134.71 471.612 134.295C471.76 134.085 471.906 133.894 472.056 133.716C472.097 133.945 472.127 134.187 472.151 134.439C472.197 134.95 472.213 135.499 472.19 136.081C472.175 136.505 472.141 136.944 472.087 137.401C471.982 138.303 471.798 139.259 471.536 140.236C471.274 141.213 470.956 142.133 470.595 142.967C470.414 143.39 470.224 143.786 470.024 144.161C469.75 144.676 469.464 145.148 469.17 145.564C469.023 145.774 468.877 145.964 468.726 146.142C468.685 145.913 468.655 145.671 468.631 145.42C468.586 144.909 468.57 144.36 468.593 143.778C468.608 143.353 468.642 142.915 468.696 142.458C468.801 141.555 468.984 140.6 469.246 139.623C469.508 138.645 469.827 137.726 470.187 136.892Z" fill="white" stroke="white" stroke-width="0.75" stroke-miterlimit="10"/>
<path d="M448.21 132.701C448.21 132.701 448.202 132.717 448.189 132.722C447.312 133.666 446.574 134.71 445.976 135.817C445.932 135.896 445.89 135.98 445.849 136.061C445.39 136.954 445.025 137.888 444.755 138.851C444.688 139.072 444.635 139.298 444.582 139.524C444.497 139.916 444.423 140.307 444.364 140.698C444.219 141.687 444.17 142.687 444.225 143.691C445.131 144.151 446.077 144.518 447.052 144.791C447.44 144.895 447.834 144.993 448.228 145.076C448.459 145.119 448.687 145.161 448.921 145.193C449.921 145.343 450.932 145.397 451.947 145.349C452.041 145.344 452.134 145.342 452.225 145.332C453.492 145.249 454.758 145.01 455.991 144.609C456.001 144.601 456.012 144.604 456.02 144.602C457.201 144.207 458.352 143.666 459.444 142.969C460.537 142.272 461.507 141.455 462.357 140.556C462.359 140.549 462.365 140.539 462.378 140.535C463.255 139.59 463.993 138.547 464.591 137.44C464.635 137.36 464.677 137.276 464.718 137.196C465.177 136.303 465.542 135.369 465.812 134.406C465.879 134.184 465.932 133.959 465.985 133.733C466.07 133.341 466.144 132.95 466.203 132.558C466.349 131.57 466.397 130.57 466.342 129.566C465.436 129.106 464.49 128.739 463.515 128.466C463.127 128.362 462.733 128.264 462.339 128.181C462.108 128.138 461.88 128.096 461.646 128.064C460.646 127.914 459.635 127.86 458.62 127.908C458.526 127.913 458.433 127.915 458.342 127.925C457.075 128.008 455.809 128.247 454.576 128.647C454.566 128.656 454.555 128.653 454.547 128.655C453.366 129.05 452.215 129.591 451.123 130.288C450.031 130.985 449.06 131.802 448.21 132.701ZM462.562 130.802C462.974 130.616 463.379 130.454 463.775 130.317C464.32 130.124 464.84 129.978 465.339 129.872C465.584 129.82 465.823 129.777 466.054 129.751C465.932 129.947 465.798 130.143 465.648 130.343C465.348 130.746 464.998 131.158 464.599 131.569C464.311 131.869 463.993 132.164 463.655 132.462C462.982 133.046 462.218 133.622 461.382 134.156C460.545 134.689 459.703 135.144 458.885 135.508C458.472 135.694 458.067 135.856 457.672 135.993C457.127 136.186 456.606 136.332 456.107 136.438C455.862 136.49 455.623 136.533 455.393 136.559C455.515 136.363 455.648 136.167 455.798 135.967C456.099 135.564 456.448 135.152 456.847 134.741C457.136 134.441 457.454 134.146 457.792 133.848C458.465 133.263 459.228 132.688 460.064 132.154C460.901 131.621 461.744 131.166 462.562 130.802Z" fill="white" stroke="white" stroke-width="0.75" stroke-miterlimit="10"/>
<path d="M452.608 97.0308C452.608 97.0308 452.589 97.0296 452.579 97.023C451.31 96.6985 450.015 96.5422 448.732 96.5447C448.638 96.5468 448.544 96.5489 448.45 96.551C447.423 96.5715 446.41 96.6969 445.414 96.9202C445.183 96.9675 444.953 97.0302 444.727 97.0903C444.335 97.2033 443.945 97.3244 443.563 97.4594C442.604 97.8055 441.679 98.2424 440.801 98.7776C440.821 99.8061 440.945 100.82 441.168 101.817C441.256 102.214 441.364 102.609 441.481 102.998C441.553 103.224 441.624 103.449 441.705 103.669C442.05 104.63 442.486 105.556 443.02 106.434C443.069 106.513 443.116 106.596 443.166 106.672C443.849 107.761 444.674 108.772 445.63 109.674C445.64 109.677 445.646 109.686 445.651 109.695C446.575 110.554 447.61 111.318 448.766 111.95C449.921 112.583 451.119 113.056 452.336 113.374C452.343 113.376 452.355 113.375 452.365 113.382C453.634 113.706 454.929 113.862 456.212 113.86C456.306 113.858 456.4 113.856 456.493 113.854C457.521 113.833 458.534 113.708 459.53 113.484C459.76 113.437 459.991 113.374 460.217 113.314C460.608 113.201 460.998 113.08 461.38 112.945C462.34 112.599 463.265 112.162 464.143 111.627C464.123 110.598 463.998 109.585 463.776 108.587C463.688 108.19 463.58 107.795 463.463 107.406C463.391 107.181 463.319 106.955 463.239 106.735C462.894 105.775 462.458 104.849 461.924 103.97C461.875 103.891 461.827 103.808 461.778 103.733C461.094 102.643 460.269 101.632 459.314 100.73C459.303 100.728 459.298 100.718 459.293 100.709C458.369 99.8507 457.33 99.086 456.178 98.4544C455.026 97.8228 453.824 97.349 452.608 97.0308ZM461.21 108.868C461.575 109.145 461.915 109.427 462.228 109.709C462.663 110.102 463.048 110.493 463.378 110.885C463.544 111.078 463.694 111.27 463.831 111.458C463.597 111.446 463.355 111.42 463.104 111.384C462.598 111.314 462.059 111.197 461.498 111.043C461.089 110.929 460.671 110.794 460.24 110.632C459.388 110.318 458.505 109.914 457.621 109.428C456.737 108.942 455.924 108.409 455.204 107.862C454.839 107.586 454.499 107.304 454.186 107.021C453.751 106.629 453.366 106.238 453.036 105.846C452.87 105.653 452.719 105.461 452.583 105.273C452.817 105.285 453.059 105.311 453.309 105.347C453.815 105.416 454.355 105.534 454.916 105.688C455.325 105.801 455.743 105.937 456.174 106.099C457.026 106.413 457.909 106.817 458.793 107.303C459.677 107.788 460.49 108.322 461.21 108.868Z" fill="white" stroke="white" stroke-width="0.75" stroke-miterlimit="10"/>
<path d="M471.845 89.1802C471.845 89.1802 471.833 89.1653 471.827 89.156C471.102 88.0375 470.236 87.0219 469.274 86.1285C469.206 86.0675 469.136 86.0018 469.061 85.9388C468.274 85.2407 467.426 84.6236 466.521 84.0884C466.314 83.9629 466.101 83.8472 465.887 83.7316C465.515 83.5381 465.135 83.3546 464.755 83.1903C463.789 82.7718 462.788 82.4449 461.755 82.2188C461.051 82.9777 460.431 83.7979 459.895 84.6759C459.685 85.0253 459.485 85.3848 459.299 85.7484C459.194 85.962 459.09 86.1719 458.998 86.393C458.583 87.3306 458.262 88.3051 458.044 89.3112C458.023 89.4032 458.003 89.4951 457.987 89.5844C457.74 90.8516 457.65 92.1572 457.73 93.4731C457.735 93.4861 457.733 93.4933 457.73 93.5042C457.819 94.7682 458.062 96.0458 458.484 97.3092C458.907 98.5726 459.476 99.7507 460.165 100.828C460.171 100.834 460.177 100.843 460.182 100.852C460.908 101.971 461.773 102.986 462.735 103.88C462.803 103.941 462.874 104.006 462.949 104.069C463.735 104.768 464.583 105.385 465.489 105.92C465.696 106.045 465.909 106.161 466.122 106.277C466.495 106.47 466.874 106.654 467.255 106.818C468.22 107.236 469.222 107.563 470.255 107.789C470.959 107.031 471.579 106.21 472.115 105.332C472.324 104.983 472.525 104.623 472.71 104.26C472.816 104.046 472.92 103.836 473.011 103.615C473.427 102.678 473.748 101.703 473.965 100.697C473.986 100.605 474.007 100.513 474.023 100.424C474.27 99.1566 474.359 97.851 474.279 96.5351C474.275 96.5222 474.277 96.5149 474.28 96.504C474.19 95.24 473.948 93.9624 473.525 92.699C473.103 91.4356 472.533 90.2576 471.845 89.1802ZM469.992 103.746C470.071 104.2 470.128 104.644 470.167 105.068C470.218 105.655 470.23 106.208 470.205 106.719C470.197 106.975 470.175 107.218 470.141 107.451C469.975 107.278 469.812 107.094 469.647 106.89C469.315 106.485 468.992 106.028 468.68 105.519C468.453 105.155 468.235 104.761 468.025 104.346C467.609 103.524 467.226 102.619 466.905 101.652C466.583 100.684 466.346 99.7316 466.191 98.8321C466.112 98.3782 466.055 97.934 466.016 97.5104C465.965 96.9235 465.953 96.3705 465.978 95.8587C465.986 95.6035 466.008 95.3597 466.042 95.1271C466.208 95.3003 466.371 95.4843 466.536 95.6885C466.868 96.0933 467.191 96.5501 467.503 97.0587C467.729 97.4236 467.948 97.8175 468.158 98.2323C468.574 99.0536 468.956 99.9592 469.278 100.927C469.599 101.894 469.837 102.847 469.992 103.746Z" fill="white" stroke="white" stroke-width="0.75" stroke-miterlimit="10"/>
<path d="M444.216 114.652C444.216 114.652 444.197 114.662 444.186 114.663C442.955 115.069 441.792 115.626 440.729 116.304C440.649 116.355 440.574 116.407 440.498 116.458C439.656 117.018 438.881 117.656 438.176 118.366C438.01 118.526 437.856 118.697 437.698 118.867C437.432 119.168 437.176 119.471 436.934 119.785C436.323 120.577 435.798 121.426 435.356 122.324C435.933 123.158 436.59 123.925 437.319 124.625C437.608 124.904 437.912 125.171 438.221 125.432C438.402 125.579 438.583 125.726 438.774 125.865C439.586 126.473 440.455 126.998 441.373 127.441C441.459 127.483 441.541 127.52 441.624 127.557C442.785 128.088 444.022 128.484 445.305 128.718C445.317 128.717 445.327 128.724 445.334 128.726C446.568 128.943 447.847 129.02 449.151 128.933C450.454 128.846 451.708 128.598 452.894 128.214C452.903 128.209 452.912 128.204 452.924 128.203C454.155 127.797 455.317 127.241 456.381 126.562C456.46 126.511 456.536 126.46 456.612 126.408C457.454 125.849 458.229 125.21 458.933 124.5C459.1 124.34 459.254 124.169 459.412 123.999C459.678 123.699 459.933 123.396 460.176 123.081C460.787 122.289 461.312 121.44 461.754 120.542C461.177 119.709 460.52 118.941 459.79 118.241C459.501 117.963 459.198 117.696 458.889 117.435C458.708 117.287 458.527 117.14 458.335 117.002C457.524 116.394 456.655 115.869 455.737 115.426C455.651 115.384 455.568 115.346 455.486 115.309C454.324 114.778 453.088 114.382 451.805 114.148C451.793 114.149 451.783 114.143 451.776 114.141C450.542 113.924 449.263 113.847 447.959 113.933C446.656 114.02 445.402 114.268 444.216 114.652ZM457.824 119.819C458.279 119.854 458.714 119.906 459.133 119.973C459.708 120.066 460.241 120.182 460.732 120.329C460.976 120.398 461.207 120.475 461.421 120.559C461.22 120.672 461.006 120.778 460.773 120.882C460.311 121.092 459.803 121.282 459.252 121.449C458.851 121.573 458.428 121.68 457.984 121.777C457.105 121.97 456.152 122.105 455.152 122.171C454.151 122.237 453.186 122.232 452.288 122.162C451.833 122.128 451.398 122.076 450.979 122.009C450.404 121.915 449.871 121.799 449.38 121.652C449.136 121.583 448.905 121.506 448.691 121.422C448.892 121.309 449.106 121.203 449.339 121.099C449.801 120.889 450.309 120.699 450.86 120.532C451.261 120.408 451.684 120.301 452.128 120.204C453.007 120.011 453.96 119.876 454.96 119.81C455.96 119.745 456.926 119.749 457.824 119.819Z" fill="white" stroke="white" stroke-width="0.75" stroke-miterlimit="10"/>
<path d="M503.804 108.114C503.804 108.114 503.812 108.096 503.826 108.092C504.741 107.108 505.51 106.021 506.133 104.868C506.179 104.785 506.223 104.698 506.266 104.614C506.744 103.684 507.125 102.711 507.406 101.708C507.476 101.477 507.531 101.242 507.586 101.007C507.675 100.599 507.752 100.191 507.813 99.7833C507.965 98.7533 508.014 97.712 507.957 96.6657C507.012 96.1864 506.025 95.803 505.007 95.5185C504.602 95.4099 504.191 95.3077 503.78 95.2213C503.538 95.1765 503.301 95.1327 503.057 95.0989C502.013 94.9422 500.958 94.8856 499.9 94.935C499.802 94.9404 499.705 94.9422 499.609 94.9524C498.287 95.0383 496.966 95.2869 495.68 95.7036C495.67 95.7127 495.659 95.7097 495.65 95.7113C494.418 96.1226 493.218 96.6852 492.078 97.4107C490.939 98.1363 489.927 98.9871 489.04 99.9233C489.039 99.9307 489.032 99.9408 489.019 99.9451C488.103 100.929 487.334 102.015 486.711 103.169C486.665 103.252 486.621 103.339 486.579 103.423C486.1 104.353 485.719 105.326 485.438 106.329C485.368 106.56 485.313 106.795 485.258 107.03C485.169 107.438 485.092 107.846 485.031 108.254C484.88 109.284 484.83 110.325 484.887 111.371C485.833 111.85 486.82 112.234 487.837 112.518C488.242 112.627 488.653 112.729 489.064 112.815C489.306 112.86 489.543 112.904 489.788 112.938C490.831 113.095 491.886 113.151 492.945 113.102C493.043 113.096 493.14 113.095 493.235 113.084C494.557 112.999 495.878 112.75 497.164 112.333C497.174 112.324 497.186 112.327 497.194 112.325C498.426 111.914 499.627 111.352 500.766 110.626C501.905 109.901 502.918 109.05 503.804 108.114ZM488.827 110.084C488.397 110.278 487.974 110.446 487.562 110.589C486.993 110.79 486.45 110.941 485.93 111.052C485.674 111.106 485.425 111.15 485.185 111.177C485.312 110.973 485.451 110.769 485.607 110.561C485.921 110.141 486.285 109.712 486.701 109.284C487.002 108.972 487.334 108.664 487.686 108.354C488.388 107.746 489.184 107.146 490.057 106.591C490.929 106.036 491.808 105.562 492.662 105.184C493.092 104.989 493.515 104.821 493.927 104.678C494.496 104.478 495.039 104.326 495.559 104.215C495.815 104.161 496.064 104.117 496.304 104.09C496.177 104.294 496.038 104.498 495.882 104.706C495.568 105.126 495.204 105.555 494.788 105.983C494.487 106.295 494.155 106.603 493.803 106.913C493.101 107.522 492.305 108.121 491.432 108.676C490.56 109.231 489.681 109.706 488.827 110.084Z" fill="white" stroke="white" stroke-width="0.75" stroke-miterlimit="10"/>
<path d="M498.803 143.105C498.803 143.105 498.822 143.106 498.832 143.113C500.101 143.437 501.396 143.594 502.679 143.591C502.773 143.589 502.867 143.587 502.96 143.585C503.988 143.564 505.001 143.439 505.997 143.216C506.227 143.168 506.458 143.106 506.684 143.046C507.075 142.933 507.465 142.811 507.847 142.676C508.807 142.33 509.732 141.894 510.61 141.358C510.59 140.33 510.465 139.316 510.243 138.319C510.155 137.921 510.047 137.527 509.93 137.137C509.858 136.912 509.786 136.687 509.706 136.466C509.36 135.506 508.925 134.58 508.391 133.702C508.342 133.623 508.294 133.54 508.245 133.464C507.561 132.374 506.736 131.364 505.781 130.462C505.77 130.459 505.765 130.45 505.76 130.44C504.836 129.582 503.801 128.818 502.645 128.186C501.49 127.553 500.291 127.08 499.075 126.762C499.067 126.76 499.056 126.761 499.046 126.754C497.776 126.43 496.482 126.273 495.199 126.276C495.105 126.278 495.011 126.28 494.917 126.282C493.89 126.303 492.877 126.428 491.881 126.652C491.65 126.699 491.42 126.761 491.194 126.822C490.802 126.935 490.412 127.056 490.03 127.191C489.071 127.537 488.146 127.974 487.268 128.509C487.288 129.537 487.412 130.551 487.635 131.549C487.723 131.946 487.831 132.34 487.948 132.73C488.019 132.955 488.091 133.181 488.172 133.401C488.517 134.361 488.953 135.287 489.487 136.165C489.536 136.245 489.583 136.327 489.633 136.403C490.316 137.493 491.141 138.504 492.096 139.405C492.107 139.408 492.113 139.418 492.118 139.427C493.042 140.285 494.081 141.05 495.232 141.681C496.384 142.313 497.586 142.787 498.803 143.105ZM490.2 131.271C489.835 130.994 489.495 130.712 489.182 130.43C488.747 130.037 488.362 129.646 488.032 129.254C487.866 129.062 487.715 128.87 487.579 128.682C487.813 128.694 488.055 128.72 488.305 128.756C488.811 128.825 489.351 128.942 489.912 129.097C490.321 129.21 490.739 129.346 491.17 129.508C492.022 129.822 492.905 130.225 493.789 130.711C494.673 131.197 495.486 131.73 496.206 132.277C496.571 132.554 496.911 132.836 497.224 133.118C497.659 133.511 498.044 133.902 498.374 134.294C498.54 134.486 498.69 134.678 498.827 134.867C498.593 134.854 498.351 134.829 498.1 134.793C497.594 134.723 497.055 134.606 496.494 134.452C496.085 134.338 495.667 134.203 495.236 134.041C494.384 133.727 493.501 133.323 492.617 132.837C491.733 132.351 490.92 131.818 490.2 131.271Z" fill="white" stroke="white" stroke-width="0.75" stroke-miterlimit="10"/>
<path d="M479.566 150.956C479.566 150.956 479.578 150.971 479.583 150.98C480.309 152.098 481.174 153.114 482.137 154.007C482.204 154.068 482.275 154.134 482.35 154.197C483.136 154.895 483.984 155.512 484.89 156.047C485.097 156.173 485.31 156.289 485.523 156.404C485.896 156.598 486.275 156.781 486.656 156.946C487.621 157.364 488.623 157.691 489.656 157.917C490.36 157.158 490.98 156.338 491.516 155.46C491.725 155.111 491.926 154.751 492.111 154.387C492.217 154.174 492.321 153.964 492.412 153.743C492.828 152.805 493.149 151.831 493.366 150.825C493.387 150.733 493.408 150.641 493.424 150.551C493.671 149.284 493.761 147.979 493.681 146.663C493.676 146.65 493.678 146.643 493.681 146.632C493.591 145.368 493.349 144.09 492.926 142.827C492.504 141.563 491.934 140.385 491.246 139.308C491.239 139.302 491.234 139.293 491.228 139.284C490.503 138.165 489.637 137.15 488.675 136.256C488.607 136.195 488.537 136.129 488.462 136.066C487.676 135.368 486.828 134.751 485.922 134.216C485.715 134.091 485.502 133.975 485.288 133.859C484.916 133.666 484.536 133.482 484.156 133.318C483.191 132.899 482.189 132.572 481.156 132.346C480.452 133.105 479.832 133.926 479.296 134.804C479.086 135.153 478.886 135.512 478.7 135.876C478.595 136.09 478.491 136.299 478.399 136.521C477.984 137.458 477.663 138.433 477.445 139.439C477.425 139.531 477.404 139.623 477.388 139.712C477.141 140.979 477.051 142.285 477.131 143.601C477.136 143.614 477.134 143.621 477.131 143.632C477.221 144.896 477.463 146.173 477.885 147.437C478.308 148.7 478.877 149.878 479.566 150.956ZM481.417 136.394C481.339 135.94 481.281 135.495 481.243 135.072C481.192 134.485 481.18 133.932 481.205 133.42C481.213 133.165 481.234 132.921 481.269 132.689C481.434 132.862 481.597 133.046 481.763 133.25C482.095 133.655 482.417 134.111 482.729 134.62C482.956 134.985 483.175 135.379 483.384 135.794C483.801 136.615 484.183 137.521 484.505 138.488C484.826 139.455 485.064 140.408 485.219 141.307C485.298 141.761 485.355 142.205 485.394 142.629C485.445 143.216 485.457 143.769 485.432 144.281C485.423 144.536 485.402 144.78 485.368 145.012C485.202 144.839 485.039 144.655 484.873 144.451C484.541 144.046 484.219 143.589 483.907 143.081C483.68 142.716 483.461 142.322 483.252 141.907C482.835 141.086 482.453 140.18 482.132 139.213C481.81 138.246 481.573 137.293 481.417 136.394Z" fill="white" stroke="white" stroke-width="0.75" stroke-miterlimit="10"/>
<path d="M507.013 126.163C507.013 126.163 507.031 126.152 507.043 126.151C508.284 125.709 509.458 125.109 510.534 124.384C510.614 124.329 510.691 124.274 510.768 124.219C511.62 123.621 512.406 122.941 513.122 122.187C513.292 122.017 513.449 121.835 513.609 121.655C513.88 121.336 514.141 121.015 514.388 120.682C515.012 119.843 515.55 118.945 516.005 117.997C515.437 117.13 514.788 116.334 514.065 115.609C513.779 115.321 513.477 115.045 513.171 114.775C512.991 114.623 512.811 114.471 512.621 114.328C511.814 113.701 510.949 113.162 510.034 112.709C509.949 112.666 509.866 112.628 509.783 112.59C508.625 112.048 507.39 111.649 506.105 111.42C506.093 111.421 506.083 111.415 506.076 111.413C504.841 111.201 503.558 111.137 502.249 111.245C500.939 111.354 499.678 111.63 498.482 112.049C498.473 112.054 498.464 112.06 498.452 112.061C497.212 112.503 496.038 113.102 494.962 113.828C494.881 113.882 494.804 113.937 494.728 113.993C493.875 114.591 493.09 115.27 492.373 116.024C492.204 116.195 492.047 116.376 491.886 116.557C491.615 116.875 491.355 117.197 491.107 117.53C490.484 118.369 489.946 119.266 489.49 120.214C490.059 121.081 490.708 121.878 491.431 122.602C491.717 122.891 492.018 123.167 492.325 123.437C492.505 123.589 492.684 123.741 492.874 123.883C493.681 124.511 494.546 125.05 495.462 125.503C495.547 125.546 495.629 125.584 495.712 125.622C496.87 126.164 498.106 126.563 499.391 126.791C499.403 126.79 499.412 126.797 499.42 126.799C500.655 127.01 501.937 127.074 503.247 126.966C504.556 126.858 505.818 126.581 507.013 126.163ZM493.425 120.921C492.968 120.891 492.533 120.842 492.113 120.777C491.538 120.687 491.004 120.572 490.513 120.424C490.269 120.355 490.038 120.277 489.825 120.192C490.028 120.071 490.244 119.957 490.479 119.844C490.946 119.618 491.458 119.412 492.013 119.229C492.417 119.094 492.843 118.977 493.29 118.869C494.175 118.655 495.133 118.5 496.138 118.418C497.142 118.336 498.111 118.328 499.011 118.39C499.467 118.42 499.903 118.469 500.323 118.534C500.898 118.624 501.432 118.739 501.923 118.887C502.167 118.956 502.398 119.034 502.611 119.119C502.408 119.24 502.192 119.354 501.957 119.467C501.49 119.693 500.978 119.899 500.423 120.082C500.019 120.217 499.593 120.334 499.146 120.442C498.261 120.656 497.303 120.81 496.298 120.893C495.294 120.975 494.325 120.983 493.425 120.921Z" fill="white" stroke="white" stroke-width="0.75" stroke-miterlimit="10"/>
<path d="M383.801 53.5373C390.925 55.446 398.247 51.2186 400.156 44.095C402.064 36.9715 397.837 29.6494 390.713 27.7407C383.59 25.8319 376.268 30.0593 374.359 37.1829C372.45 44.3064 376.678 51.6285 383.801 53.5373Z" stroke="white" stroke-width="4" stroke-miterlimit="10"/>
<path d="M386.394 43.8636C388.174 44.3407 390.005 43.2839 390.482 41.503C390.959 39.7221 389.902 37.8916 388.122 37.4144C386.341 36.9372 384.51 37.9941 384.033 39.775C383.556 41.5558 384.613 43.3864 386.394 43.8636Z" fill="white" stroke="white" stroke-miterlimit="10"/>
<path d="M401.968 12.9716C401.968 12.9716 401.966 12.9516 401.969 12.9407C401.986 11.629 401.843 10.3366 401.55 9.0899L401.546 9.08895C401.529 8.99857 401.503 8.90992 401.482 8.81859C401.227 7.82739 400.879 6.87342 400.438 5.96491C400.34 5.75157 400.231 5.54723 400.124 5.33926C399.929 4.98732 399.723 4.63616 399.505 4.30127C398.957 3.45353 398.329 2.66595 397.626 1.94405C396.652 2.21673 395.714 2.58455 394.82 3.04576C394.462 3.23043 394.113 3.42885 393.765 3.63549C393.568 3.76178 393.368 3.8835 393.18 4.01991C392.343 4.59016 391.564 5.24212 390.849 5.96947C390.781 6.03706 390.718 6.10196 390.658 6.17145L390.655 6.1705C389.779 7.10016 389.003 8.15026 388.366 9.2957C388.363 9.3066 388.357 9.31655 388.351 9.32287C387.743 10.4295 387.256 11.623 386.914 12.8983C386.573 14.1736 386.398 15.4507 386.371 16.713C386.372 16.7213 386.373 16.7331 386.37 16.744C386.353 18.0557 386.497 19.3481 386.79 20.5948L386.793 20.5957C386.811 20.6861 386.836 20.7748 386.857 20.8661C387.112 21.8573 387.461 22.8113 387.901 23.7198C388 23.9331 388.108 24.1375 388.216 24.3454C388.41 24.6974 388.616 25.0485 388.834 25.3834C389.382 26.2312 390.011 27.0187 390.714 27.7406C391.687 27.468 392.625 27.1001 393.52 26.6389C393.877 26.4543 394.226 26.2558 394.574 26.0492C394.772 25.9229 394.971 25.8012 395.16 25.6648C395.996 25.0945 396.775 24.4426 397.49 23.7152C397.558 23.6476 397.621 23.5827 397.681 23.5132L397.685 23.5142C398.561 22.5845 399.336 21.5344 399.973 20.389C399.976 20.3781 399.983 20.3681 399.988 20.3618C400.596 19.2552 401.083 18.0617 401.425 16.7864C401.767 15.5111 401.942 14.234 401.968 12.9716ZM392.668 24.2182C392.486 24.6408 392.296 25.0377 392.097 25.4127C391.823 25.9271 391.536 26.3995 391.243 26.8154C391.095 27.0251 390.949 27.2158 390.799 27.3936C390.758 27.1645 390.728 26.9227 390.704 26.671C390.658 26.1604 390.642 25.6109 390.665 25.029C390.68 24.6047 390.714 24.1659 390.768 23.7092C390.873 22.8066 391.057 21.8512 391.319 20.8738C391.581 19.8965 391.899 18.9771 392.26 18.1429C392.441 17.7204 392.631 17.3235 392.83 16.9485C393.105 16.4341 393.391 15.9616 393.685 15.5458C393.832 15.3361 393.978 15.1454 394.129 14.9676C394.17 15.1967 394.2 15.4385 394.224 15.6902C394.269 16.2008 394.285 16.7503 394.262 17.3322C394.247 17.7565 394.213 18.1953 394.159 18.652C394.054 19.5545 393.87 20.51 393.609 21.4874C393.347 22.4647 393.028 23.3841 392.668 24.2182Z" fill="white" stroke="white" stroke-width="0.75" stroke-miterlimit="10"/>
<path d="M372.546 68.3062C372.546 68.3062 372.549 68.3263 372.546 68.3372C372.529 69.6489 372.672 70.9413 372.965 72.188L372.969 72.1889C372.986 72.2793 373.012 72.368 373.033 72.4593C373.288 73.4505 373.636 74.4045 374.077 75.313C374.175 75.5263 374.284 75.7307 374.391 75.9386C374.586 76.2906 374.792 76.6417 375.01 76.9766C375.558 77.8244 376.186 78.6119 376.889 79.3338C377.863 79.0612 378.801 78.6933 379.695 78.2321C380.053 78.0475 380.402 77.849 380.75 77.6424C380.947 77.5161 381.147 77.3944 381.335 77.258C382.172 76.6877 382.951 76.0358 383.666 75.3084C383.733 75.2408 383.796 75.1759 383.857 75.1064L383.86 75.1074C384.736 74.1777 385.512 73.1276 386.149 71.9822C386.152 71.9713 386.158 71.9613 386.164 71.955C386.772 70.8484 387.259 69.6549 387.601 68.3796C387.942 67.1043 388.117 65.8272 388.144 64.5648C388.142 64.5566 388.142 64.5448 388.145 64.5339C388.162 63.2222 388.018 61.9298 387.725 60.6831L387.722 60.6822C387.704 60.5918 387.679 60.5031 387.658 60.4118C387.403 59.4206 387.054 58.4666 386.614 57.5581C386.515 57.3448 386.407 57.1404 386.299 56.9325C386.105 56.5805 385.899 56.2294 385.681 55.8945C385.133 55.0467 384.504 54.2591 383.801 53.5372C382.828 53.8099 381.89 54.1777 380.995 54.639C380.638 54.8236 380.288 55.0221 379.941 55.2287C379.743 55.355 379.544 55.4767 379.355 55.6131C378.519 56.1834 377.74 56.8353 377.024 57.5627C376.957 57.6303 376.894 57.6952 376.834 57.7647L376.83 57.7637C375.954 58.6934 375.179 59.7435 374.541 60.8889C374.539 60.8998 374.532 60.9098 374.527 60.9161C373.919 62.0227 373.432 63.2162 373.09 64.4915C372.748 65.7668 372.573 67.0439 372.546 68.3062ZM381.846 57.0633C382.028 56.6407 382.218 56.2438 382.417 55.8688C382.691 55.3544 382.978 54.882 383.271 54.4661C383.419 54.2564 383.565 54.0658 383.715 53.888C383.756 54.1171 383.786 54.3588 383.81 54.6105C383.856 55.1211 383.872 55.6706 383.849 56.2525C383.834 56.6769 383.8 57.1156 383.746 57.5723C383.641 58.4749 383.457 59.4303 383.195 60.4077C382.933 61.385 382.615 62.3044 382.254 63.1386C382.073 63.5611 381.883 63.9581 381.684 64.333C381.409 64.8475 381.123 65.3199 380.829 65.7357C380.682 65.9455 380.536 66.1361 380.385 66.3139C380.344 66.0848 380.314 65.8431 380.29 65.5914C380.245 65.0807 380.229 64.5312 380.252 63.9493C380.267 63.525 380.301 63.0863 380.355 62.6295C380.46 61.727 380.643 60.7715 380.905 59.7942C381.167 58.8168 381.486 57.8975 381.846 57.0633Z" fill="white" stroke="white" stroke-width="0.75" stroke-miterlimit="10"/>
<path d="M359.051 52.9964C359.051 52.9964 359.042 53.0139 359.029 53.0183C358.114 54.0022 357.344 55.0885 356.722 56.2419C356.675 56.3247 356.632 56.4121 356.589 56.4959C356.111 57.4263 355.73 58.3986 355.449 59.4018C355.379 59.6329 355.324 59.8679 355.269 60.103C355.18 60.5112 355.103 60.9188 355.041 61.3267C354.89 62.3567 354.84 63.398 354.898 64.4442C355.843 64.9235 356.83 65.3069 357.848 65.5915C358.253 65.7 358.664 65.8022 359.075 65.8886C359.316 65.9334 359.554 65.9773 359.798 66.011C360.842 66.1678 361.896 66.2243 362.955 66.175C363.053 66.1695 363.15 66.1678 363.245 66.1576C364.567 66.0717 365.889 65.8231 367.174 65.4064C367.185 65.3973 367.196 65.4003 367.205 65.3986C368.437 64.9873 369.637 64.4248 370.777 63.6992C371.916 62.9737 372.928 62.1228 373.814 61.1867C373.816 61.1793 373.823 61.1692 373.836 61.1648C374.751 60.1809 375.521 59.0946 376.144 57.9411C376.19 57.8584 376.234 57.7709 376.276 57.6872C376.755 56.7568 377.136 55.7844 377.417 54.7812C377.487 54.5502 377.542 54.3151 377.596 54.0801C377.686 53.6718 377.763 53.2643 377.824 52.8564C377.975 51.8264 378.025 50.7851 377.967 49.7388C377.022 49.2596 376.035 48.8761 375.018 48.5916C374.612 48.483 374.201 48.3808 373.79 48.2945C373.549 48.2496 373.311 48.2058 373.067 48.172C372.023 48.0153 370.969 47.9587 369.91 48.0081C369.812 48.0135 369.715 48.0153 369.62 48.0255C368.298 48.1114 366.977 48.36 365.691 48.7767C365.68 48.7858 365.669 48.7828 365.661 48.7845C364.428 49.1957 363.228 49.7583 362.089 50.4838C360.949 51.2094 359.937 52.0602 359.051 52.9964ZM374.027 51.0263C374.457 50.8323 374.88 50.6642 375.293 50.5209C375.861 50.3203 376.405 50.1686 376.925 50.0582C377.181 50.0038 377.43 49.9595 377.67 49.9328C377.543 50.1366 377.404 50.3412 377.248 50.5491C376.934 50.9686 376.57 51.3983 376.154 51.826C375.853 52.1379 375.521 52.4455 375.169 52.7555C374.467 53.3643 373.671 53.9638 372.798 54.519C371.925 55.0742 371.046 55.5484 370.193 55.9264C369.763 56.1204 369.34 56.2886 368.928 56.4318C368.359 56.6324 367.816 56.7842 367.296 56.8946C367.04 56.9489 366.791 56.9932 366.55 57.02C366.677 56.8161 366.817 56.6116 366.973 56.4037C367.286 55.9841 367.651 55.5544 368.067 55.1267C368.368 54.8148 368.699 54.5072 369.052 54.1972C369.754 53.5884 370.55 52.9889 371.423 52.4337C372.295 51.8785 373.174 51.4043 374.027 51.0263Z" fill="white" stroke="white" stroke-width="0.75" stroke-miterlimit="10"/>
<path d="M364.052 18.0049C364.052 18.0049 364.033 18.0037 364.023 17.9972C362.754 17.6726 361.459 17.5163 360.176 17.5189C360.082 17.521 359.988 17.5231 359.894 17.5252C358.867 17.5456 357.854 17.6711 356.858 17.8944C356.628 17.9416 356.397 18.0043 356.171 18.0644C355.779 18.1774 355.389 18.2986 355.007 18.4335C354.048 18.7796 353.123 19.2165 352.245 19.7517C352.265 20.7803 352.389 21.7942 352.612 22.7915C352.7 23.1886 352.808 23.5833 352.925 23.9726C352.997 24.198 353.068 24.4235 353.149 24.6436C353.494 25.6037 353.93 26.5298 354.464 27.4083C354.513 27.4875 354.56 27.5703 354.61 27.6459C355.294 28.7356 356.118 29.7465 357.074 30.6483C357.084 30.6512 357.09 30.6604 357.095 30.6696C358.019 31.5281 359.054 32.2918 360.21 32.9243C361.365 33.5569 362.564 34.0298 363.78 34.3479C363.787 34.3499 363.799 34.3492 363.809 34.3557C365.078 34.6802 366.373 34.8365 367.656 34.834C367.75 34.8319 367.844 34.8298 367.937 34.8277C368.965 34.8073 369.978 34.6818 370.974 34.4585C371.204 34.4113 371.435 34.3485 371.661 34.2884C372.052 34.1755 372.442 34.0543 372.824 33.9193C373.784 33.5733 374.709 33.1364 375.587 32.6012C375.567 31.5726 375.442 30.5587 375.22 29.5614C375.132 29.1643 375.024 28.7696 374.907 28.3803C374.835 28.1548 374.764 27.9294 374.683 27.7093C374.338 26.7491 373.902 25.8231 373.368 24.9446C373.319 24.8654 373.271 24.7826 373.222 24.707C372.538 23.6173 371.713 22.6064 370.758 21.7046C370.747 21.7017 370.742 21.6925 370.737 21.6832C369.813 20.8248 368.774 20.0601 367.622 19.4285C366.47 18.7969 365.268 18.3231 364.052 18.0049ZM372.655 29.839C373.02 30.1158 373.36 30.3976 373.673 30.6799C374.108 31.0727 374.493 31.4637 374.823 31.8557C374.989 32.048 375.14 32.2401 375.276 32.4283C375.042 32.4163 374.8 32.3904 374.549 32.3543C374.043 32.2849 373.504 32.1675 372.943 32.0133C372.534 31.8999 372.116 31.7645 371.685 31.6024C370.833 31.2884 369.95 30.8846 369.066 30.3987C368.182 29.9128 367.369 29.3798 366.649 28.8328C366.284 28.556 365.944 28.2742 365.631 27.9919C365.196 27.5991 364.811 27.2081 364.481 26.8161C364.315 26.6238 364.164 26.4317 364.028 26.2435C364.262 26.2555 364.504 26.2814 364.754 26.3174C365.26 26.3869 365.8 26.5043 366.361 26.6585C366.77 26.7719 367.188 26.9073 367.619 27.0694C368.471 27.3834 369.354 27.7872 370.238 28.2731C371.122 28.759 371.935 29.292 372.655 29.839Z" fill="white" stroke="white" stroke-width="0.75" stroke-miterlimit="10"/>
<path d="M383.289 10.1543C383.289 10.1543 383.277 10.1393 383.271 10.1301C382.546 9.01156 381.68 7.99598 380.718 7.10262C380.651 7.04158 380.58 6.9759 380.505 6.91285C379.719 6.21481 378.871 5.5977 377.965 5.06252C377.758 4.93697 377.545 4.82132 377.331 4.70568C376.959 4.51223 376.579 4.3287 376.199 4.16436C375.234 3.74587 374.232 3.41895 373.199 3.1929C372.495 3.95175 371.875 4.77201 371.339 5.65004C371.129 5.99934 370.929 6.35893 370.743 6.72251C370.638 6.93605 370.534 7.14594 370.442 7.36712C370.027 8.30466 369.706 9.27915 369.488 10.2853C369.468 10.3773 369.447 10.4692 369.431 10.5585C369.184 11.8257 369.094 13.1313 369.174 14.4472C369.179 14.4601 369.177 14.4674 369.174 14.4783C369.264 15.7423 369.506 17.0199 369.929 18.2833C370.351 19.5467 370.92 20.7248 371.609 21.8022C371.615 21.8078 371.621 21.8171 371.627 21.8263C372.352 22.9449 373.217 23.9604 374.18 24.8538C374.247 24.9148 374.318 24.9805 374.393 25.0436C375.179 25.7416 376.027 26.3587 376.933 26.8939C377.14 27.0194 377.353 27.1351 377.566 27.2507C377.939 27.4442 378.319 27.6277 378.699 27.792C379.664 28.2105 380.666 28.5375 381.699 28.7635C382.403 28.0047 383.023 27.1844 383.559 26.3064C383.768 25.9571 383.969 25.5975 384.155 25.2339C384.26 25.0204 384.364 24.8105 384.455 24.5893C384.871 23.6517 385.192 22.6773 385.41 21.6711C385.43 21.5792 385.451 21.4872 385.467 21.3979C385.714 20.1307 385.804 18.8251 385.724 17.5092C385.719 17.4963 385.721 17.489 385.724 17.4781C385.634 16.2141 385.392 14.9365 384.969 13.6731C384.547 12.4097 383.977 11.2316 383.289 10.1543ZM381.438 24.7164C381.516 25.1703 381.573 25.6145 381.612 26.0382C381.663 26.625 381.675 27.178 381.65 27.6899C381.642 27.945 381.621 28.1889 381.586 28.4214C381.42 28.2483 381.257 28.0643 381.092 27.86C380.76 27.4552 380.438 26.9985 380.125 26.4898C379.899 26.125 379.68 25.731 379.471 25.3162C379.054 24.4949 378.672 23.5893 378.35 22.622C378.029 21.6546 377.791 20.702 377.636 19.8026C377.557 19.3487 377.5 18.9045 377.461 18.4808C377.41 17.894 377.398 17.341 377.423 16.8291C377.431 16.574 377.453 16.3301 377.487 16.0976C377.653 16.2707 377.816 16.4547 377.981 16.659C378.314 17.0638 378.636 17.5205 378.948 18.0292C379.175 18.394 379.393 18.788 379.603 19.2028C380.019 20.0241 380.402 20.9297 380.723 21.897C381.045 22.8644 381.282 23.817 381.438 24.7164Z" fill="white" stroke="white" stroke-width="0.75" stroke-miterlimit="10"/>
<path d="M355.842 34.9472C355.842 34.9472 355.823 34.9582 355.811 34.959C354.571 35.4011 353.397 36.0007 352.321 36.7263C352.24 36.7806 352.164 36.8359 352.087 36.8912C351.234 37.4891 350.449 38.1688 349.732 38.9229C349.563 39.0931 349.406 39.2746 349.245 39.4551C348.974 39.7737 348.714 40.0952 348.466 40.428C347.843 41.267 347.305 42.1647 346.85 43.1126C347.418 43.9795 348.067 44.7762 348.79 45.5007C349.076 45.789 349.377 46.0654 349.684 46.3352C349.864 46.4871 350.044 46.6391 350.234 46.7818C351.04 47.4092 351.905 47.9484 352.821 48.4012C352.906 48.444 352.989 48.4821 353.071 48.5202C354.23 49.0621 355.465 49.461 356.75 49.6895C356.762 49.6887 356.772 49.6953 356.779 49.6973C358.014 49.9085 359.297 49.9727 360.606 49.8645C361.915 49.7563 363.177 49.4795 364.372 49.0613C364.381 49.0558 364.391 49.0502 364.402 49.0494C365.643 48.6073 366.817 48.0077 367.893 47.2822C367.973 47.2278 368.05 47.1725 368.127 47.1172C368.979 46.5193 369.765 45.8396 370.482 45.0855C370.651 44.9153 370.808 44.7338 370.968 44.5533C371.239 44.2347 371.5 43.9132 371.747 43.5804C372.371 42.7414 372.909 41.8437 373.364 40.8958C372.796 40.0289 372.147 39.2322 371.424 38.5077C371.138 38.2194 370.837 37.9431 370.53 37.6732C370.35 37.5213 370.17 37.3693 369.98 37.2266C369.174 36.5993 368.308 36.0601 367.393 35.6072C367.308 35.5644 367.225 35.5263 367.143 35.4882C365.984 34.9463 364.749 34.5474 363.464 34.3189C363.452 34.3197 363.442 34.3131 363.435 34.3112C362.2 34.0999 360.917 34.0357 359.608 34.1439C358.298 34.2522 357.037 34.5289 355.842 34.9472ZM369.43 40.189C369.886 40.2194 370.322 40.2682 370.742 40.3328C371.317 40.4231 371.851 40.5382 372.341 40.6856C372.586 40.7551 372.816 40.8328 373.03 40.9179C372.827 41.0392 372.611 41.153 372.375 41.2656C371.909 41.4918 371.397 41.698 370.841 41.8805C370.438 42.0158 370.012 42.1332 369.565 42.2411C368.68 42.455 367.722 42.6095 366.717 42.6916C365.713 42.7737 364.744 42.7815 363.843 42.7199C363.387 42.6896 362.952 42.6407 362.532 42.5761C361.956 42.4858 361.423 42.3707 360.932 42.2233C360.688 42.1538 360.457 42.0761 360.244 41.991C360.447 41.8697 360.663 41.7559 360.898 41.6433C361.365 41.4171 361.876 41.2109 362.432 41.0284C362.836 40.8931 363.262 40.7757 363.708 40.6678C364.594 40.4539 365.552 40.2995 366.556 40.2173C367.561 40.1352 368.53 40.1274 369.43 40.189Z" fill="white" stroke="white" stroke-width="0.75" stroke-miterlimit="10"/>
<path d="M414.644 28.4093C414.644 28.4093 414.653 28.3925 414.666 28.3883C415.543 27.4434 416.281 26.4004 416.878 25.2929C416.923 25.2135 416.965 25.1295 417.005 25.0491C417.464 24.1558 417.83 23.2223 418.1 22.2593C418.167 22.0375 418.22 21.8118 418.272 21.5861C418.358 21.1942 418.432 20.803 418.491 20.4114C418.636 19.4227 418.684 18.4232 418.63 17.4189C417.724 16.9592 416.778 16.5916 415.803 16.3189C415.415 16.2148 415.021 16.1169 414.627 16.0342C414.396 15.9912 414.168 15.9493 413.934 15.917C412.933 15.7669 411.923 15.7131 410.908 15.7609C410.814 15.7662 410.721 15.7679 410.63 15.7777C409.363 15.8607 408.096 16.0999 406.864 16.5005C406.854 16.5092 406.843 16.5063 406.835 16.5079C405.654 16.9032 404.503 17.4437 403.411 18.1406C402.318 18.8375 401.348 19.6547 400.498 20.5537C400.496 20.5608 400.49 20.5704 400.477 20.5747C399.6 21.5195 398.861 22.5626 398.264 23.67C398.22 23.7494 398.178 23.8334 398.137 23.9138C397.678 24.8071 397.312 25.7406 397.043 26.7036C396.976 26.9255 396.923 27.1511 396.87 27.3768C396.784 27.7687 396.71 28.1599 396.652 28.5515C396.506 29.5402 396.458 30.5398 396.513 31.544C397.419 32.0037 398.364 32.3713 399.34 32.644C399.728 32.7481 400.122 32.846 400.516 32.9287C400.747 32.9717 400.975 33.0136 401.209 33.0459C402.209 33.196 403.22 33.2498 404.235 33.202C404.328 33.1967 404.421 33.195 404.513 33.1852C405.78 33.1022 407.046 32.863 408.279 32.4624C408.289 32.4537 408.3 32.4566 408.308 32.455C409.489 32.0597 410.64 31.5192 411.732 30.8223C412.824 30.1254 413.795 29.3082 414.644 28.4093ZM400.293 30.3075C399.881 30.4939 399.475 30.6555 399.08 30.7932C398.535 30.9859 398.014 31.1318 397.516 31.238C397.271 31.2903 397.032 31.3329 396.801 31.3587C396.923 31.163 397.057 30.9666 397.207 30.7669C397.507 30.3641 397.857 29.9515 398.256 29.5408C398.544 29.2412 398.862 28.9458 399.2 28.6482C399.873 28.0634 400.636 27.4877 401.473 26.9544C402.31 26.4211 403.152 25.9656 403.97 25.6024C404.382 25.4159 404.788 25.2544 405.183 25.1167C405.728 24.9239 406.249 24.778 406.748 24.6718C406.993 24.6195 407.232 24.5769 407.462 24.5511C407.34 24.7469 407.207 24.9433 407.057 25.1429C406.756 25.5458 406.407 25.9584 406.008 26.3691C405.719 26.6686 405.401 26.964 405.063 27.2617C404.39 27.8464 403.627 28.4222 402.79 28.9555C401.954 29.4888 401.111 29.9443 400.293 30.3075Z" fill="white" stroke="white" stroke-width="0.75" stroke-miterlimit="10"/>
<path d="M409.782 63.9546C409.782 63.9546 409.801 63.9556 409.81 63.9621C411.039 64.2757 412.293 64.4212 413.538 64.4083C413.629 64.4055 413.72 64.4026 413.811 64.3998C414.807 64.3711 415.791 64.2377 416.759 64.0069C416.982 63.9579 417.207 63.8934 417.426 63.8317C417.807 63.7158 418.186 63.5917 418.558 63.4539C419.491 63.1009 420.392 62.6575 421.248 62.1164C421.237 61.0902 421.124 60.0794 420.916 59.0861C420.834 58.6906 420.733 58.2976 420.622 57.9101C420.555 57.6857 420.487 57.4613 420.41 57.2423C420.083 56.2871 419.668 55.3665 419.157 54.4942C419.111 54.4156 419.065 54.3333 419.017 54.2583C418.363 53.1765 417.571 52.1744 416.652 51.2823C416.642 51.2794 416.637 51.2703 416.632 51.2611C415.742 50.412 414.745 49.6583 413.629 49.0364C412.513 48.4145 411.355 47.9524 410.178 47.6447C410.171 47.6428 410.159 47.6436 410.149 47.6372C408.921 47.3236 407.666 47.1781 406.422 47.1909C406.331 47.1938 406.24 47.1966 406.149 47.1995C405.152 47.2281 404.169 47.3615 403.201 47.5924C402.977 47.6414 402.753 47.7058 402.533 47.7676C402.153 47.8835 401.774 48.0075 401.402 48.1453C400.469 48.4984 399.568 48.9418 398.712 49.4829C398.723 50.5091 398.836 51.5198 399.043 52.5132C399.125 52.9087 399.227 53.3016 399.337 53.6892C399.405 53.9136 399.473 54.1379 399.549 54.3569C399.876 55.3122 400.292 56.2328 400.802 57.105C400.849 57.1837 400.895 57.2659 400.942 57.3409C401.596 58.4228 402.388 59.4248 403.307 60.317C403.318 60.3198 403.323 60.329 403.328 60.3381C404.217 61.1873 405.218 61.9419 406.331 62.5629C407.443 63.1838 408.605 63.6469 409.782 63.9546ZM401.53 52.2145C401.178 51.9413 400.85 51.6628 400.549 51.3837C400.131 50.9952 399.761 50.6081 399.443 50.2197C399.284 50.0291 399.139 49.8386 399.009 49.6519C399.236 49.6621 399.47 49.6859 399.713 49.7199C400.203 49.7851 400.725 49.8979 401.268 50.0472C401.664 50.1571 402.068 50.2889 402.485 50.4471C403.309 50.7535 404.162 51.1494 405.015 51.6271C405.869 52.1048 406.653 52.6301 407.347 53.1701C407.699 53.4433 408.026 53.7218 408.328 54.001C408.746 54.3894 409.116 54.7765 409.434 55.1649C409.593 55.3555 409.738 55.546 409.868 55.7327C409.641 55.7226 409.407 55.6987 409.164 55.6648C408.674 55.5996 408.151 55.4868 407.609 55.3374C407.213 55.2276 406.808 55.0958 406.392 54.9375C405.568 54.6311 404.715 54.2353 403.862 53.7576C403.008 53.2798 402.224 52.7545 401.53 52.2145Z" fill="white" stroke="white" stroke-width="0.75" stroke-miterlimit="10"/>
<path d="M391.01 71.9298C391.01 71.9298 391.022 71.9447 391.028 71.954C391.753 73.0725 392.619 74.0881 393.581 74.9814C393.648 75.0425 393.719 75.1082 393.794 75.1712C394.58 75.8693 395.428 76.4864 396.334 77.0215C396.541 77.1471 396.754 77.2627 396.968 77.3784C397.34 77.5718 397.72 77.7554 398.1 77.9197C399.065 78.3382 400.067 78.6651 401.1 78.8912C401.804 78.1323 402.424 77.3121 402.96 76.434C403.17 76.0847 403.37 75.7251 403.556 75.3615C403.661 75.148 403.765 74.9381 403.857 74.7169C404.272 73.7794 404.593 72.8049 404.811 71.7988C404.831 71.7068 404.852 71.6149 404.868 71.5255C405.115 70.2584 405.205 68.9528 405.125 67.6368C405.12 67.6239 405.122 67.6167 405.125 67.6057C405.035 66.3418 404.793 65.0642 404.37 63.8008C403.948 62.5373 403.379 61.3593 402.69 60.2819C402.684 60.2763 402.678 60.267 402.672 60.2577C401.947 59.1392 401.082 58.1236 400.119 57.2303C400.052 57.1692 399.981 57.1036 399.906 57.0405C399.12 56.3425 398.272 55.7254 397.366 55.1902C397.159 55.0646 396.946 54.949 396.733 54.8333C396.36 54.6399 395.98 54.4564 395.6 54.292C394.635 53.8735 393.633 53.5466 392.6 53.3206C391.896 54.0794 391.276 54.8997 390.74 55.7777C390.531 56.127 390.33 56.4866 390.144 56.8502C390.039 57.0637 389.935 57.2736 389.844 57.4948C389.428 58.4323 389.107 59.4068 388.889 60.413C388.869 60.5049 388.848 60.5969 388.832 60.6862C388.585 61.9534 388.495 63.259 388.575 64.5749C388.58 64.5878 388.578 64.5951 388.575 64.606C388.665 65.87 388.907 67.1475 389.33 68.411C389.752 69.6744 390.322 70.8524 391.01 71.9298ZM392.858 57.3666C392.779 56.9128 392.722 56.4685 392.683 56.0449C392.632 55.458 392.62 54.905 392.645 54.3932C392.653 54.138 392.675 53.8942 392.709 53.6616C392.875 53.8348 393.038 54.0188 393.203 54.223C393.535 54.6278 393.858 55.0846 394.17 55.5932C394.397 55.9581 394.615 56.3521 394.825 56.7669C395.241 57.5881 395.624 58.4938 395.945 59.4611C396.267 60.4284 396.504 61.381 396.66 62.2805C396.738 62.7344 396.795 63.1786 396.834 63.6023C396.885 64.1891 396.897 64.7421 396.872 65.254C396.864 65.5091 396.843 65.7529 396.808 65.9855C396.642 65.8124 396.479 65.6283 396.314 65.4241C395.982 65.0193 395.66 64.5626 395.347 64.0539C395.121 63.689 394.902 63.2951 394.693 62.8803C394.276 62.059 393.894 61.1534 393.572 60.186C393.251 59.2187 393.013 58.2661 392.858 57.3666Z" fill="white" stroke="white" stroke-width="0.75" stroke-miterlimit="10"/>
<path d="M418.639 46.4579C418.639 46.4579 418.657 46.4476 418.669 46.447C419.9 46.041 421.062 45.4841 422.126 44.8058C422.205 44.755 422.281 44.7033 422.357 44.6515C423.199 44.0922 423.974 43.454 424.678 42.744C424.845 42.5839 424.999 42.4128 425.157 42.2427C425.423 41.9423 425.678 41.6391 425.921 41.3249C426.532 40.5328 427.057 39.6838 427.499 38.7858C426.922 37.9522 426.265 37.1846 425.536 36.4848C425.247 36.2064 424.943 35.9392 424.634 35.6781C424.453 35.531 424.272 35.3839 424.081 35.2454C423.269 34.6373 422.4 34.1124 421.482 33.6693C421.396 33.6274 421.313 33.5901 421.231 33.5527C420.069 33.0216 418.833 32.6259 417.55 32.3919C417.538 32.3926 417.528 32.3861 417.521 32.3842C416.287 32.1674 415.008 32.0901 413.704 32.1769C412.401 32.2638 411.147 32.5118 409.961 32.8956C409.952 32.9008 409.943 32.9059 409.931 32.9065C408.7 33.3125 407.538 33.8695 406.474 34.5477C406.394 34.5985 406.319 34.6503 406.243 34.702C405.401 35.2614 404.626 35.8996 403.922 36.6095C403.755 36.7697 403.601 36.9407 403.443 37.1108C403.177 37.4112 402.921 37.7144 402.679 38.0286C402.068 38.8207 401.543 39.6697 401.101 40.5677C401.678 41.4013 402.335 42.1689 403.064 42.8687C403.353 43.1472 403.657 43.4143 403.966 43.6754C404.147 43.8225 404.328 43.9696 404.519 44.1081C405.331 44.7162 406.2 45.2411 407.118 45.6843C407.204 45.7261 407.286 45.7635 407.369 45.8008C408.531 46.332 409.767 46.7277 411.05 46.9616C411.062 46.961 411.072 46.9674 411.079 46.9693C412.313 47.1862 413.592 47.2634 414.896 47.1766C416.199 47.0898 417.453 46.8417 418.639 46.4579ZM405.031 41.2908C404.576 41.2561 404.141 41.2041 403.722 41.1373C403.147 41.044 402.614 40.9276 402.123 40.7809C401.879 40.7116 401.648 40.6346 401.434 40.5509C401.635 40.4377 401.849 40.332 402.082 40.2276C402.544 40.0177 403.052 39.8275 403.603 39.6605C404.004 39.5366 404.427 39.43 404.871 39.3327C405.75 39.1398 406.703 39.0046 407.703 38.9388C408.703 38.8731 409.669 38.8778 410.567 38.9477C411.022 38.9824 411.457 39.0344 411.876 39.1012C412.451 39.1945 412.984 39.3109 413.475 39.4576C413.719 39.5269 413.95 39.6039 414.164 39.6876C413.963 39.8008 413.749 39.9065 413.516 40.0109C413.054 40.2208 412.546 40.411 411.995 40.578C411.594 40.7019 411.171 40.8085 410.727 40.9058C409.848 41.0987 408.895 41.2339 407.895 41.2997C406.894 41.3654 405.929 41.3607 405.031 41.2908Z" fill="white" stroke="white" stroke-width="0.75" stroke-miterlimit="10"/>
<path d="M435.641 106.989C438.477 107.572 444.463 109.558 445.034 109.985C445.762 110.532 445.997 111.458 445.558 112.052C445.226 112.5 444.606 112.633 444.009 112.436C444.02 112.476 444.033 112.517 444.042 112.557C437.359 109.284 428.244 106.757 418.049 105.689C397.791 103.569 380.47 107.961 377.65 115.611L375.024 115.337C377.826 106.708 396.954 101.699 418.03 103.905C425.622 104.7 431.443 105.739 435.641 106.989Z" fill="white"/>
<path d="M352.706 358.159C408.855 359.715 460.953 372.208 504.749 392.555L488.957 392.187C448.341 375.44 401.208 365.289 350.694 364.11C300.18 362.931 252.624 370.873 211.271 385.707L195.478 385.339C240.672 366.853 293.971 356.785 350.834 358.112L352.706 358.159Z" fill="white"/>
<path d="M208.949 384.869C212.125 385.322 209.403 385.776 198.063 390.312C196.203 391.056 194 389.67 194 387.916C194 386.163 195.625 384.741 197.629 384.741C199.633 384.741 212.578 383.508 208.949 384.869Z" fill="white"/>
<path d="M506.5 394.848C506.5 396.852 504.024 398.938 501.964 398.023C497.882 396.208 494.707 394.394 488.357 391.219C488.357 389.215 498.802 391.673 501.057 391.673C503.312 391.673 506.5 392.844 506.5 394.848Z" fill="white"/>
<defs>
<clipPath id="clip0_19_152">
<rect width="280.82" height="278.27" fill="white" transform="translate(469 84)"/>
</clipPath>
</defs>
</svg>
